<svg version="1.1" viewBox="0 0 126.12 295.34" xmlns="http://www.w3.org/2000/svg" xmlns:xlink="http://www.w3.org/1999/xlink">
 <defs>
  <pattern id="pattern1" patternTransform="scale(10)" preserveAspectRatio="xMidYMid" xlink:href="#packed-circles"/>
  <pattern id="packed-circles" width="1" height="1.73205080756" fill="#000000" patternTransform="translate(0) scale(10)" patternUnits="userSpaceOnUse" preserveAspectRatio="xMidYMid">
   <circle cy=".5" r=".5"/>
   <circle cx="1" cy=".5" r=".5"/>
   <circle cx=".5" cy="1.366" r=".5"/>
   <circle cx=".5" cy="-.36603" r=".5"/>
  </pattern>
  <pattern id="pattern30" patternTransform="translate(0 263.74)" preserveAspectRatio="xMidYMid" xlink:href="#RedButton"/>
  <linearGradient id="linearGradient118861" x1="20" x2="80" y1="50" y2="50" gradientTransform="matrix(1.1667 0 0 1.1667 12.377 -58.333)" gradientUnits="userSpaceOnUse">
   <stop stop-color="#fc0000" offset="0"/>
   <stop offset="1"/>
  </linearGradient>
  <linearGradient id="linearGradient119595" x2="100" y2="100" gradientUnits="userSpaceOnUse">
   <stop offset="0"/>
   <stop stop-color="#f70000" offset="1"/>
  </linearGradient>
  <pattern id="RedButton" width="100" height="100" fill="none" patternTransform="scale(.5)" patternUnits="userSpaceOnUse" preserveAspectRatio="xMidYMid">
   <rect width="100" height="100" fill="url(#linearGradient119595)"/>
   <circle transform="rotate(45)" cx="70.711" cy="-6.388e-7" r="35" fill="url(#linearGradient118861)"/>
  </pattern>
 </defs>
 <g transform="translate(63.062 374.92)">
  <g transform="matrix(2.3594 0 0 .70311 -.0015485 -73.285)" stroke-linecap="round">
   <g fill="#da1fe0">
    <path d="m-5.5-250.93v117.96" color="#000000" style="-inkscape-stroke:none"/>
    <path d="m-5.5-254.93c-2.2091 0-3.7821 2.2984-4 4-0.71313 5.5693 9.5416 9.3619 9.5 14.961-0.040624 5.4711-9.6133 9.0592-9.5 14.53 0.10658 5.1474 9.2648 8.2804 9.5 13.425 0.27087 5.9251-9.0385 10.148-9.5 16.065-0.63318 8.1183 8.7081 15.067 9.5066 23.176 0.40932 4.1565-0.6228 8.4567-2.4871 12.348-1.5469 3.2286-7.2444 5.257-7.0195 8.712 0.19456 2.9897 6.142 4.0788 7.0195 6.9883 1.1729 3.8889-5.2287 11.757-3.0195 11.757s4-1.7909 4-4v-117.96c0-2.2091-1.7909-4-4-4z" color="#000000" style="-inkscape-stroke:none"/>
   </g>
   <path d="m5.5-251.04v118.18" color="#000000" fill="#da1fe0" style="-inkscape-stroke:none"/>
   <path d="m5.5-255.04c-2.2091 0-4 1.7909-4 4v118.18c0 2.2091 1.7909 4 4 4s-4.2346-8.0242-3-11.972c0.89221-2.8532 6.7618-3.8645 7-6.8002 0.28543-3.5177-5.4468-5.6581-7-8.9548-1.8138-3.8501-2.8902-8.0824-2.4934-12.187 0.78381-8.1087 10.129-15.059 9.4934-23.176-0.46305-5.9174-9.7644-10.14-9.5-16.065 0.23031-5.1606 9.4037-8.3163 9.5-13.48 0.10174-5.4544-9.4442-9.0201-9.5-14.475-0.057568-5.631 10.228-9.4692 9.5-15.07-0.221-1.7013-1.7909-4-4-4z" color="#000000" fill="#421fe0" style="-inkscape-stroke:none"/>
  </g>
  <g transform="matrix(3 0 0 3 -.17954 147.34)" fill="url(#pattern1)">
   <path d="m14.516-90.64a14.516 14.516 0 0 1-14.516 14.516 14.516 14.516 0 0 1-14.516-14.516 14.516 14.516 0 0 1 14.516-14.516 14.516 14.516 0 0 1 14.516 14.516z" color="#000000" style="-inkscape-stroke:none"/>
   <path d="m0-105.64c-8.2785 0-15 6.7215-15 15 0 8.2785 6.7215 15 15 15s15-6.7215 15-15c-2e-6 -8.2785-6.7215-15-15-15zm0 0.9668c7.7559 0 14.033 6.2773 14.033 14.033 0 7.7559-6.2773 14.033-14.033 14.033s-14.033-6.2773-14.033-14.033c2e-6 -7.7559 6.2773-14.033 14.033-14.033z" color="#000000" style="-inkscape-stroke:none"/>
  </g>
  <path d="m-29.031-300c-18.737 0-34.031 15.296-34.031 34.03s15.295 34.026 34.031 34.026c12.258 0 23.039-6.5461 29.031-16.318-0.11609-0.1894-0.22738-0.38244-0.33984-0.57414-0.11039-0.1882-0.22127-0.37596-0.32813-0.5663-0.12432-0.22152-0.24772-0.44334-0.36719-0.66786-0.13733-0.258-0.26761-0.51928-0.39844-0.78112-0.12542-0.25114-0.24785-0.50312-0.36719-0.7577-0.13609-0.29014-0.26647-0.58426-0.39453-0.87876-0.088866-0.2045-0.17679-0.41054-0.26172-0.6171-0.096556-0.2346-0.18983-0.46974-0.28125-0.7069-0.078556-0.20394-0.15967-0.40738-0.23438-0.61318-0.023794-0.0656-0.043006-0.1336-0.066406-0.1992-0.1177-0.33044-0.23219-0.66486-0.33984-0.99984-0.065394-0.20368-0.12978-0.40788-0.19141-0.61318-0.086398-0.28758-0.16719-0.57638-0.24609-0.86706-0.050404-0.1858-0.10114-0.37142-0.14844-0.55848-0.11733-0.46366-0.22626-0.93126-0.32422-1.4021-0.01754-0.0844-0.03388-0.1694-0.050782-0.25386-0.080928-0.40456-0.15242-0.81292-0.21875-1.2225-0.022324-0.138-0.045758-0.27544-0.066406-0.41398-0.070164-0.47016-0.13304-0.9416-0.18359-1.4177-8.314e-4 -8e-3 -0.00308-0.016-0.0039-0.0234-0.01612-0.153-0.025-0.30736-0.039062-0.46088-0.032944-0.3593-0.060458-0.71946-0.082032-1.0819-0.00968-0.1626-0.01998-0.3249-0.027344-0.4882-0.023082-0.51148-0.039062-1.0257-0.039062-1.5427 0 13.33-10.699 24.027-24.031 24.027-13.332 0-24.031-10.697-24.031-24.027s10.699-24.031 24.031-24.031c13.332 0 24.031 10.701 24.031 24.031 0-0.517 0.01598-1.0313 0.039062-1.5427 0.00736-0.1634 0.01766-0.32554 0.027344-0.48822 0.021574-0.36236 0.049086-0.72254 0.082032-1.0819 0.01406-0.1536 0.02295-0.30792 0.039062-0.46086 8.262e-4 -8e-3 0.00308-0.016 0.0039-0.0234 0.050552-0.4761 0.11343-0.94758 0.18359-1.4177 0.020996-0.141 0.043676-0.28148 0.066406-0.4218 0.063674-0.39254 0.13385-0.7837 0.21094-1.1717 0.021136-0.1066 0.040364-0.21406 0.0625-0.32024 0.096336-0.46146 0.20146-0.9203 0.31641-1.3748 0.04769-0.1888 0.1015-0.37492 0.15234-0.5624 0.078902-0.29068 0.1597-0.5795 0.24609-0.86706 0.062278-0.20752 0.12528-0.41514 0.19141-0.62098 0.082522-0.2566 0.17329-0.51158 0.26172-0.76552 0.049158-0.1414 0.093564-0.28526 0.14453-0.4257 0.083968-0.2314 0.1768-0.45834 0.26562-0.6874 0.080128-0.2064 0.15816-0.4126 0.24219-0.61708 0.087134-0.21224 0.17825-0.42262 0.26953-0.63272 0.12806-0.29448 0.25844-0.5886 0.39453-0.87874 0.13498-0.28798 0.27522-0.57178 0.41797-0.85534 0.10695-0.21232 0.21299-0.42294 0.32422-0.6327 0.13004-0.24538 0.26261-0.48854 0.39844-0.73036 0.10456-0.1862 0.21238-0.37068 0.32031-0.5546 0.11243-0.1916 0.2238-0.38486 0.33984-0.57412-5.9927-9.7728-16.774-16.322-29.031-16.322z" fill="#421fe0" stroke-width="1.9998"/>
  <path d="m29.031-300c-12.258 0-23.039 6.5488-29.031 16.322 3.1675 5.1655 5 11.23 5 17.708 0-13.33 10.699-24.031 24.031-24.031s24.031 10.701 24.031 24.031-10.699 24.027-24.031 24.027-24.031-10.697-24.031-24.027c0 6.4779-1.8324 12.543-5 17.708 5.9927 9.7715 16.774 16.318 29.031 16.318 18.737 0 34.031-15.292 34.031-34.026s-15.295-34.03-34.031-34.03zm-29.031 51.738c-0.11608-0.1892-0.22738-0.3825-0.33984-0.57414 0.11247 0.1918 0.22376 0.38484 0.33984 0.57414zm0-35.416c-0.11605 0.1892-0.22741 0.38248-0.33984 0.57412 0.11246-0.1916 0.22377-0.38486 0.33984-0.57412zm-0.66016 1.1287c-0.13582 0.24182-0.2684 0.48498-0.39844 0.73036 0.12992-0.24502 0.26276-0.48888 0.39844-0.73036zm-0.72266 1.3631c-0.14275 0.28356-0.28299 0.56736-0.41797 0.85534 0.13511-0.28808 0.27508-0.57168 0.41797-0.85534zm-0.8125 1.7341c-0.091284 0.2101-0.1824 0.42048-0.26953 0.63272 0.087054-0.21184 0.17834-0.423 0.26953-0.63272zm-0.51172 1.2498c-0.088828 0.22906-0.18166 0.456-0.26562 0.6874 0.084244-0.23196 0.1765-0.4578 0.26562-0.6874zm-0.67188 1.8786c-0.066128 0.20584-0.12913 0.41346-0.19141 0.62098 0.06241-0.20774 0.12514-0.41494 0.19141-0.62098zm-0.4375 1.488c-0.050846 0.1876-0.10465 0.37366-0.15234 0.5624 0.04776-0.1888 0.10142-0.37484 0.15234-0.5624zm-0.46875 1.9372c-0.022136 0.1062-0.041364 0.2137-0.0625 0.32024 0.021168-0.1066 0.040332-0.21406 0.0625-0.32024zm-0.27344 1.4919c-0.022732 0.1404-0.04541 0.2809-0.066406 0.4218 0.021038-0.141 0.04363-0.28142 0.066406-0.4218zm-0.25391 1.863c-0.01612 0.153-0.025 0.30736-0.039062 0.46086 0.01408-0.1536 0.02293-0.3079 0.039062-0.46086zm-0.12109 1.5427c-0.00968 0.1628-0.01998 0.32492-0.027344 0.48822 0.00736-0.1632 0.01766-0.32572 0.027344-0.48822zm-0.027344 3.5736c0.00736 0.1634 0.01766 0.32554 0.027344 0.4882-0.00968-0.1626-0.01998-0.32508-0.027344-0.4882zm0.10937 1.5701c0.01406 0.1536 0.02295 0.30794 0.039062 0.46088-0.01614-0.153-0.024984-0.30734-0.039062-0.46088zm0.22656 1.902c0.020648 0.1386 0.044082 0.276 0.066406 0.41398-0.022334-0.138-0.04575-0.27556-0.066406-0.41398zm0.28516 1.6364c0.0169 0.0846 0.03325 0.1696 0.050782 0.25386-0.01754-0.0842-0.03388-0.1694-0.050782-0.25386zm0.375 1.656c0.047302 0.187 0.098034 0.37264 0.14844 0.55848-0.050502-0.186-0.10105-0.37122-0.14844-0.55848zm0.39453 1.4255c0.061624 0.2053 0.12601 0.4095 0.19141 0.61318-0.065464-0.2037-0.12971-0.40786-0.19141-0.61318zm0.59766 1.8122c0.074708 0.2058 0.15582 0.40924 0.23438 0.61318-0.078924-0.20476-0.15933-0.40656-0.23438-0.61318zm0.51562 1.3201c0.084934 0.20656 0.17285 0.4126 0.26172 0.6171-0.088878-0.20438-0.17677-0.41066-0.26172-0.6171zm0.65625 1.4959c0.11934 0.25458 0.24177 0.50656 0.36719 0.7577-0.12532-0.25082-0.24793-0.50344-0.36719-0.7577zm0.76563 1.5388c0.11947 0.22452 0.24287 0.44634 0.36719 0.66786-0.12458-0.22192-0.24747-0.44294-0.36719-0.66786z" fill="#da1fe0" stroke-width="1.9998"/>
  <path d="m0-274.83c-1.5841 2.5828-2.5 5.6151-2.5 8.854 0 3.239 0.9159 6.2715 2.5 8.854 1.5838-2.5825 2.5-5.615 2.5-8.854 0-3.2389-0.91624-6.2713-2.5-8.854z" fill="#421fe0" fill-opacity=".47608" stroke-width=".99992"/>
  <path d="m1e-6 -369.18c-9.5044 15.497-15 33.69-15 53.124 0 19.434 5.4954 37.629 15 53.124 9.5028-15.495 15-33.69 15-53.124 0-19.434-5.4974-37.628-15-53.124z" color="#000000" fill="url(#pattern30)" stroke="#000" stroke-width="5.9995" style="-inkscape-stroke:none"/>
 </g>
</svg>
