<svg version="1.1" viewBox="0 0 63.062 240.82" xmlns="http://www.w3.org/2000/svg">
 <g transform="translate(31.531 316.46)">
  <g transform="matrix(1 0 0 1.2443 -.53619 61.316)" stroke-linecap="round">
   <g fill="#da1fe0">
    <path d="m-5.5-250.93v117.96" color="#000000" style="-inkscape-stroke:none"/>
    <path d="m-5.5-254.93c-2.2091 0-4 1.7909-4 4l32.694 58.98-32.694 58.98c-1.1187 2.0181 1.7909 4 4 4s4-1.7909 4-4v-117.96c0-2.2091-1.7909-4-4-4z" color="#000000" style="-inkscape-stroke:none"/>
   </g>
   <path d="m5.5-251.04v118.18" color="#000000" fill="#da1fe0" style="-inkscape-stroke:none"/>
   <path d="m5.5-255.04c-2.2091 0-4 1.7909-4 4v118.18c0 2.2091 1.7909 4 4 4s4-1.7909 4-4l-31.622-59.09 31.622-59.09c1.0861-2.0295-1.7909-4-4-4z" color="#000000" fill="#421fe0" style="-inkscape-stroke:none"/>
  </g>
  <path d="m14.516-90.64a14.516 14.516 0 0 1-14.516 14.516 14.516 14.516 0 0 1-14.516-14.516 14.516 14.516 0 0 1 14.516-14.516 14.516 14.516 0 0 1 14.516 14.516z" color="#000000" style="-inkscape-stroke:none"/>
  <path d="m0-105.64c-8.2785 0-15 6.7215-15 15 0 8.2785 6.7215 15 15 15s15-6.7215 15-15c-2e-6 -8.2785-6.7215-15-15-15zm0 0.9668c7.7559 0 14.033 6.2773 14.033 14.033 0 7.7559-6.2773 14.033-14.033 14.033s-14.033-6.2773-14.033-14.033c2e-6 -7.7559 6.2773-14.033 14.033-14.033z" color="#000000" fill="#da1fe0" style="-inkscape-stroke:none"/>
  <g transform="matrix(1 0 0 .99984 0 -.051891)">
   <path d="m-14.516-282.98c-9.3683 0-17.016 7.6493-17.016 17.018s7.6473 17.016 17.016 17.016c6.1288 0 11.519-3.2736 14.516-8.1602-0.058043-0.0947-0.11369-0.19125-0.16992-0.28711-0.055193-0.0941-0.11063-0.18802-0.16406-0.2832-0.06216-0.11078-0.12386-0.22171-0.18359-0.33399-0.068665-0.12902-0.1338-0.25968-0.19922-0.39062-0.062709-0.12559-0.12393-0.2516-0.18359-0.37891-0.068047-0.1451-0.13323-0.29218-0.19727-0.43945-0.044433-0.10227-0.088393-0.20531-0.13086-0.3086-0.048278-0.11732-0.094916-0.23491-0.14062-0.35351-0.039278-0.10199-0.079834-0.20373-0.11719-0.30664-0.011897-0.0328-0.021503-0.0668-0.033203-0.0996-0.058852-0.16525-0.1161-0.33248-0.16992-0.5-0.032697-0.10186-0.064892-0.20397-0.095703-0.30664-0.043199-0.14381-0.083596-0.28824-0.12305-0.4336-0.025202-0.0929-0.050568-0.18574-0.074219-0.27929-0.058665-0.23187-0.11313-0.4657-0.16211-0.70118-0.00877-0.0422-0.01694-0.0847-0.025391-0.12695-0.040464-0.20232-0.076209-0.40653-0.10938-0.61133-0.011162-0.069-0.022879-0.13775-0.033203-0.20703-0.035082-0.23512-0.066522-0.47088-0.091797-0.70898-4.157e-4 -4e-3 -0.00154-8e-3 -0.00195-0.0117-0.00806-0.0765-0.0125-0.1537-0.019531-0.23047-0.016472-0.17968-0.030229-0.35979-0.041016-0.54102-0.00484-0.0813-0.00999-0.16248-0.013672-0.24414-0.011541-0.25578-0.019531-0.51294-0.019531-0.77148 0 6.6661-5.3495 12.016-12.016 12.016-6.6661 0-12.016-5.3495-12.016-12.016s5.3495-12.018 12.016-12.018c6.6661 0 12.016 5.3515 12.016 12.018 0-0.25854 0.00799-0.51571 0.019531-0.77148 0.00368-0.0817 0.00883-0.16279 0.013672-0.24415 0.010787-0.18121 0.024543-0.36133 0.041016-0.54101 0.00703-0.0768 0.011475-0.15399 0.019531-0.23047 4.131e-4 -4e-3 0.00154-8e-3 0.00195-0.0117 0.025276-0.23809 0.056714-0.47387 0.091797-0.70898 0.010498-0.0705 0.021838-0.14076 0.033203-0.21094 0.031837-0.1963 0.066924-0.39191 0.10547-0.58594 0.010568-0.0533 0.020182-0.10705 0.03125-0.16015 0.048168-0.23077 0.10073-0.46022 0.1582-0.6875 0.023845-0.0944 0.050749-0.18749 0.076172-0.28125 0.039451-0.14536 0.079848-0.28979 0.12305-0.4336 0.031139-0.10377 0.062639-0.2076 0.095703-0.31054 0.041261-0.12832 0.086643-0.25583 0.13086-0.38282 0.024579-0.0707 0.046782-0.14265 0.072266-0.21289 0.041984-0.11571 0.088398-0.2292 0.13281-0.34375 0.040064-0.10322 0.079081-0.20634 0.12109-0.30859 0.043567-0.10614 0.089124-0.21135 0.13477-0.31641 0.064032-0.14727 0.12922-0.29435 0.19727-0.43945 0.067488-0.14401 0.13761-0.28593 0.20898-0.42774 0.053473-0.10617 0.10649-0.2115 0.16211-0.3164 0.065021-0.12271 0.13131-0.24431 0.19922-0.36524 0.052279-0.0931 0.10619-0.18537 0.16016-0.27734 0.056215-0.0958 0.1119-0.19247 0.16992-0.28711-2.9964-4.8872-8.3868-8.1621-14.516-8.1621z" fill="#421fe0"/>
   <path d="m14.516-282.98c-6.1288 0-11.519 3.2749-14.516 8.1621 1.5838 2.5832 2.5 5.616 2.5 8.8555 0-6.6661 5.3495-12.018 12.016-12.018 6.6661 0 12.016 5.3515 12.016 12.018s-5.3495 12.016-12.016 12.016c-6.6661 0-12.016-5.3495-12.016-12.016 0 3.2395-0.91621 6.2726-2.5 8.8555 2.9964 4.8866 8.3868 8.1602 14.516 8.1602 9.3683 0 17.016-7.6473 17.016-17.016s-7.6473-17.018-17.016-17.018zm-14.516 25.873c-0.058039-0.0946-0.11369-0.19128-0.16992-0.28711 0.056233 0.0959 0.11188 0.19245 0.16992 0.28711zm0-17.711c-0.058024 0.0946-0.11371 0.19127-0.16992 0.28711 0.056232-0.0958 0.11188-0.19247 0.16992-0.28711zm-0.33008 0.56445c-0.067912 0.12093-0.1342 0.24253-0.19922 0.36524 0.064961-0.12253 0.13138-0.24448 0.19922-0.36524zm-0.36133 0.68164c-0.071374 0.14181-0.1415 0.28373-0.20898 0.42774 0.067557-0.14406 0.13754-0.28588 0.20898-0.42774zm-0.40625 0.86719c-0.045642 0.10506-0.091199 0.21027-0.13477 0.31641 0.043527-0.10594 0.089172-0.21154 0.13477-0.31641zm-0.25586 0.625c-0.044414 0.11455-0.090829 0.22804-0.13281 0.34375 0.042122-0.11599 0.088248-0.22893 0.13281-0.34375zm-0.33594 0.93946c-0.033064 0.10294-0.064564 0.20677-0.095703 0.31054 0.031205-0.10388 0.062569-0.2075 0.095703-0.31054zm-0.21875 0.74414c-0.025423 0.0938-0.052327 0.18686-0.076172 0.28125 0.02388-0.0944 0.050712-0.18745 0.076172-0.28125zm-0.23438 0.96875c-0.011068 0.0531-0.020682 0.10687-0.03125 0.16015 0.010584-0.0533 0.020166-0.10705 0.03125-0.16015zm-0.13672 0.74609c-0.011366 0.0702-0.022705 0.14048-0.033203 0.21094 0.010519-0.0705 0.021815-0.14073 0.033203-0.21094zm-0.12695 0.93164c-0.00806 0.0765-0.0125 0.1537-0.019531 0.23047 0.00704-0.0768 0.011465-0.15398 0.019531-0.23047zm-0.060547 0.77148c-0.00484 0.0814-0.00999 0.16249-0.013672 0.24415 0.00368-0.0816 0.00883-0.16288 0.013672-0.24415zm-0.013672 1.7871c0.00368 0.0817 0.00883 0.16279 0.013672 0.24414-0.00484-0.0813-0.00999-0.16257-0.013672-0.24414zm0.054687 0.78516c0.00703 0.0768 0.011475 0.15399 0.019531 0.23047-0.00807-0.0765-0.012492-0.15369-0.019531-0.23047zm0.11328 0.95117c0.010324 0.0693 0.022041 0.13802 0.033203 0.20703-0.011167-0.069-0.022875-0.13781-0.033203-0.20703zm0.14258 0.81836c0.00845 0.0423 0.016625 0.0848 0.025391 0.12695-0.00877-0.0421-0.01694-0.0847-0.025391-0.12695zm0.1875 0.82813c0.023651 0.0935 0.049017 0.18635 0.074219 0.27929-0.025251-0.093-0.050523-0.18564-0.074219-0.27929zm0.19727 0.71289c0.030812 0.10267 0.063006 0.20478 0.095703 0.30664-0.032732-0.10187-0.064857-0.20396-0.095703-0.30664zm0.29883 0.90625c0.037354 0.10291 0.07791 0.20465 0.11719 0.30664-0.039462-0.1024-0.079666-0.20332-0.11719-0.30664zm0.25781 0.66015c0.042467 0.10329 0.086426 0.20633 0.13086 0.3086-0.044439-0.10221-0.088384-0.20537-0.13086-0.3086zm0.32812 0.74805c0.059668 0.12731 0.12088 0.25332 0.18359 0.37891-0.06266-0.12543-0.12396-0.25176-0.18359-0.37891zm0.38281 0.76953c0.059735 0.11228 0.12143 0.22321 0.18359 0.33399-0.062289-0.11098-0.12373-0.22151-0.18359-0.33399z" fill="#da1fe0"/>
   <path d="m0-274.82c-1.5841 2.5832-2.5 5.616-2.5 8.8555 0 3.2395 0.9159 6.2726 2.5 8.8555 1.5838-2.5829 2.5-5.616 2.5-8.8555 0-3.2395-0.91624-6.2723-2.5-8.8555z" fill="#421fe0" fill-opacity=".47608"/>
   <path d="m5e-7 -316.46c-4.7522 7.7496-7.5 16.848-7.5 26.566 0 9.7185 2.7477 18.818 7.5 26.566 4.7514-7.7487 7.5-16.848 7.5-26.566 0-9.7184-2.7487-18.817-7.5-26.566z" color="#000000" stroke-width="3" style="-inkscape-stroke:none"/>
  </g>
 </g>
</svg>
